<svg width="16" height="16" viewBox="0 0 16 16" fill="none" xmlns="http://www.w3.org/2000/svg">
<path d="M8.92949 14.6965L8.13672 15.4827C7.80104 15.8155 7.25825 15.8155 6.92614 15.4827L-0.0159426 8.60196C-0.351619 8.26908 -0.351619 7.73081 -0.0159426 7.40147L6.92614 0.517238C7.26182 0.184358 7.80461 0.184358 8.13672 0.517238L8.92949 1.3034C9.26873 1.63982 9.26159 2.18872 8.9152 2.51806L4.61211 6.58344L14.8753 6.58344C15.3502 6.58344 15.7323 6.96235 15.7323 7.43334V8.56655C15.7323 9.03754 15.3502 9.41645 14.8753 9.41645L4.61211 9.41645L8.9152 13.4818C9.26516 13.8112 9.27231 14.3601 8.92949 14.6965Z"/>
</svg>
