<svg width="14" height="15" viewBox="0 0 14 15" fill="none" xmlns="http://www.w3.org/2000/svg">
<g clip-path="url(#clip0_2380_4187)">
<path d="M6.88209 10.4631C6.89609 10.4821 6.91399 10.4975 6.93442 10.508C6.95485 10.5186 6.97727 10.5241 7 10.5241C7.02273 10.5241 7.04515 10.5186 7.06558 10.508C7.08601 10.4975 7.10391 10.4821 7.11791 10.4631L9.21417 7.64517C9.29091 7.54176 9.22166 7.38864 9.09626 7.38864H7.70936V0.659091C7.70936 0.571591 7.64198 0.5 7.55963 0.5H6.43663C6.35428 0.5 6.2869 0.571591 6.2869 0.659091V7.38665H4.90374C4.77834 7.38665 4.70909 7.53977 4.78583 7.64318L6.88209 10.4631ZM13.8503 9.76705H12.7273C12.6449 9.76705 12.5775 9.83864 12.5775 9.92614V12.9886H1.42246V9.92614C1.42246 9.83864 1.35508 9.76705 1.27273 9.76705H0.149733C0.0673797 9.76705 0 9.83864 0 9.92614V13.8636C0 14.2156 0.267647 14.5 0.59893 14.5H13.4011C13.7324 14.5 14 14.2156 14 13.8636V9.92614C14 9.83864 13.9326 9.76705 13.8503 9.76705Z" fill="#220050"/>
</g>
<defs>
<clipPath id="clip0_2380_4187">
<rect width="14" height="14" fill="white" transform="translate(0 0.5)"/>
</clipPath>
</defs>
</svg>
