<svg width="16" height="16" viewBox="0 0 16 16" fill="none" xmlns="http://www.w3.org/2000/svg">
<path d="M0.571429 3.29175H15.4286C15.7442 3.29175 16 3.0306 16 2.70841V1.25008C16 0.927899 15.7442 0.666748 15.4286 0.666748H0.571429C0.255821 0.666748 0 0.927899 0 1.25008V2.70841C0 3.0306 0.255821 3.29175 0.571429 3.29175ZM0.571429 9.12508H15.4286C15.7442 9.12508 16 8.86393 16 8.54175V7.08342C16 6.76123 15.7442 6.50008 15.4286 6.50008H0.571429C0.255821 6.50008 0 6.76123 0 7.08342V8.54175C0 8.86393 0.255821 9.12508 0.571429 9.12508ZM0.571429 14.9584H15.4286C15.7442 14.9584 16 14.6973 16 14.3751V12.9167C16 12.5946 15.7442 12.3334 15.4286 12.3334H0.571429C0.255821 12.3334 0 12.5946 0 12.9167V14.3751C0 14.6973 0.255821 14.9584 0.571429 14.9584Z" fill="white"/>
</svg>
