<svg width="24" height="24" viewBox="0 0 24 24" fill="none" xmlns="http://www.w3.org/2000/svg">
<g id="Icons" clip-path="url(#clip0_1012_26325)">
<path id="Union" fill-rule="evenodd" clip-rule="evenodd" d="M3 1L21 1C22.1046 1 23 1.89543 23 3L23 21C23 22.1046 22.1046 23 21 23L3 23C1.89543 23 1 22.1046 1 21L1 3C1 1.89543 1.89543 1 3 1ZM0 3C0 1.34315 1.34315 0 3 0L21 0C22.6569 0 24 1.34315 24 3L24 21C24 22.6569 22.6569 24 21 24L3 24C1.34315 24 0 22.6569 0 21L0 3ZM5.84908 6.0458L5.84209 7.32462C5.83621 7.87475 6.28608 8.31296 6.83639 8.29555L13.6158 8.09435L5.29115 16.4173C4.90591 16.8025 4.90254 17.4189 5.2836 17.7998L6.20041 18.7165C6.58147 19.0974 7.19796 19.0941 7.5832 18.7089L15.9079 10.3859L15.7066 17.164C15.6921 17.7113 16.1304 18.1611 16.6777 18.1581L17.9568 18.1511C18.4955 18.151 18.9358 17.7108 18.9387 17.1694L18.9999 5.97107C19.0058 5.43246 18.5703 4.99706 18.0287 5.00001L6.83101 5.06407C6.29232 5.06413 5.85204 5.50432 5.84908 6.0458Z" fill="#27CDFE"/>
</g>
<defs>
<clipPath id="clip0_1012_26325">
<rect width="24" height="24" fill="white"/>
</clipPath>
</defs>
</svg>
