<svg xmlns="http://www.w3.org/2000/svg" width="24" height="19" viewBox="0 0 24 19" fill="none">
  <g clip-path="url(#clip0_953_28403)">
    <path d="M13.0457 0H10.9527C10.7667 0 10.6736 0.0699454 10.6736 0.209836V8.4458H0.27907C0.0930233 8.4458 0 8.51574 0 8.65563V10.2294C0 10.3693 0.0930233 10.4392 0.27907 10.4392H10.6736V18.6754C10.6736 18.8153 10.7667 18.8852 10.9527 18.8852H13.0457C13.2318 18.8852 13.3248 18.8153 13.3248 18.6754V10.4392H23.7209C23.907 10.4392 24 10.3693 24 10.2294V8.65563C24 8.51574 23.907 8.4458 23.7209 8.4458H13.3248V0.209836C13.3248 0.0699454 13.2318 0 13.0457 0Z" fill="#BECCE5"/>
  </g>
  <defs>
    <clipPath id="clip0_953_28403">
      <rect width="24" height="18.8852" fill="white"/>
    </clipPath>
  </defs>
</svg>